# xmcd CD database file
#
# Track frame offsets:
#	150
#	13837
#	63862
#	83837
#	107710
#	123012
#	163412
#	194062
#	208375
#	235762
#	255205
#
# Disc length: 3754 seconds
#
# Revision: 0
# Processed by: cddbd v1.5.1PL0 Copyright (c) Steve Scherf et al.
# Submitted via: CDex 1.51
#
DISCID=940ea80b
DTITLE=Phillip Johnston - The Needless Kiss
DYEAR=1998
DGENRE=Jazz
TTITLE0=Pipeline
TTITLE1=Memory
TTITLE2=Planetella Rock
TTITLE3=Heyday
TTITLE4=All I Do Is Dream Of You
TTITLE5=Hofstra's Dilemna
TTITLE6=Mazurka Op. 17, No. 4
TTITLE7=Sleepwalker
TTITLE8=Needless Kiss
TTITLE9=Club
TTITLE10=Regrets #17
EXTD=YEAR: 1998
EXTT0=
EXTT1=
EXTT2=
EXTT3=
EXTT4=
EXTT5=
EXTT6=
EXTT7=
EXTT8=
EXTT9=
EXTT10=
PLAYORDER=
